<svg
height="512"
width="512"
xmlns="http://www.w3.org/2000/svg"
xmlns:xlink="http://www.w3.org/1999/xlink"><linearGradient
id="a"><stop
offset="0"
stop-color="#13411d"/><stop
offset="1"
stop-color="#37b24d"/></linearGradient><circle
cx="256"
cy="256"
fill="url(#a)"
r="256"
transform="matrix(0
1
-1
0
512
0)"/><g
fill="#fff"><path
d="m414
153.2c-8.7-10-20.4-15.1-35-15.4h-91l-41.6
236.4h91c14.7-.3
28.1-5.4
40.3-15.3h.1v-.1c12.1-10
19.6-21.9
22.4-35.8l23.6-133.9c2.2-14-1.1-26-9.8-35.9zm-42.8
24c3.6.1
6.5
1.4
8.7
3.9
2.1
2.4
2.9
5.4
2.4
8.9l-23.3
132.1c-.7
3.4-2.6
6.4-5.6
8.9-3.1
2.4-6.4
3.7-10
3.8h-48.7l27.7-157.6z"/><path
d="m243
334.8h-103.5l34.7-197h-41.4l-41.6
236.4h144.8z"/></g></svg>